<?xml version="1.0" encoding="UTF-8"?>
<svg id="Layer_1" data-name="Layer 1" xmlns="http://www.w3.org/2000/svg" viewBox="0 0 152.8 34.16">
  <g>
    <path d="M33.08,13.67c0-1.2.31-2.25.94-3.18.63-.92,1.49-1.64,2.59-2.17,1.1-.53,2.35-.79,3.76-.79s2.66.25,3.7.75c1.04.5,1.84,1.21,2.4,2.12s.84,1.99.84,3.24h-4.31c0-.7-.24-1.25-.72-1.65-.48-.4-1.13-.6-1.96-.6-.88,0-1.58.19-2.1.56-.53.38-.79.89-.79,1.55,0,.61.16,1.07.48,1.39s.83.55,1.53.7l2.97.62c1.77.36,3.08.98,3.94,1.86s1.29,2.11,1.29,3.68c0,1.27-.31,2.38-.94,3.34-.63.96-1.5,1.69-2.64,2.21-1.13.52-2.46.78-3.98.78s-2.75-.25-3.85-.75c-1.1-.5-1.95-1.21-2.55-2.13s-.9-2-.9-3.23h4.31c0,.71.26,1.27.78,1.66.52.39,1.26.59,2.22.59s1.76-.18,2.33-.55c.57-.37.86-.86.86-1.49,0-.55-.14-.98-.42-1.29-.28-.3-.75-.52-1.41-.64l-3.03-.62c-1.77-.36-3.1-1.04-4.01-2.04-.9-1-1.35-2.31-1.35-3.94Z"/>
    <path d="M49.21,27.73v-13.4h4.13v13.4h-4.13Z"/>
    <path d="M61.3,28.08c-1.29,0-2.4-.29-3.35-.86-.95-.57-1.68-1.38-2.21-2.43-.53-1.04-.79-2.27-.79-3.68s.27-2.68.8-3.77c.54-1.08,1.3-1.92,2.29-2.53.99-.61,2.17-.91,3.52-.91.84,0,1.62.15,2.34.46.72.3,1.28.71,1.67,1.21V7.53h4.13v20.2h-3.89l-.21-1.71c-.36.61-.92,1.1-1.7,1.49-.78.38-1.65.58-2.61.58ZM62.29,24.3c.64,0,1.21-.14,1.7-.42.49-.28.88-.67,1.15-1.18.28-.51.42-1.09.42-1.75s-.14-1.27-.42-1.77c-.28-.5-.66-.89-1.15-1.17s-1.06-.42-1.7-.42-1.21.14-1.69.43c-.48.29-.85.68-1.11,1.18-.26.5-.39,1.08-.39,1.74s.13,1.24.39,1.74c.26.5.63.89,1.11,1.18.48.29,1.05.43,1.69.43Z"/>
    <path d="M78.26,28.08c-1.34,0-2.53-.3-3.58-.91-1.04-.61-1.87-1.44-2.46-2.51-.6-1.06-.9-2.28-.9-3.66s.29-2.62.87-3.68c.58-1.06,1.39-1.9,2.42-2.51,1.04-.61,2.22-.91,3.56-.91,1.41,0,2.63.29,3.64.87,1.02.58,1.8,1.4,2.36,2.46.55,1.06.83,2.33.83,3.79v1.04l-11.52.05.05-2.55h7.37c0-.71-.24-1.28-.72-1.7-.48-.42-1.14-.63-1.98-.63-.7,0-1.26.13-1.7.4-.44.27-.76.68-.98,1.25-.21.56-.32,1.28-.32,2.16,0,1.25.25,2.17.76,2.77.51.6,1.3.9,2.37.9.79,0,1.44-.13,1.96-.4.52-.27.85-.64.99-1.12h3.78c-.23,1.48-.96,2.67-2.2,3.55-1.23.88-2.77,1.33-4.61,1.33Z"/>
    <path d="M85.95,20.82c0-1.45.27-2.68.8-3.71.54-1.03,1.28-1.82,2.24-2.37.96-.55,2.05-.83,3.28-.83.95,0,1.81.19,2.6.56.79.38,1.37.88,1.74,1.5l.21-1.63h3.88v19.83h-4.13v-7.77c-.39.5-.98.91-1.77,1.23-.79.32-1.64.48-2.57.48-1.32,0-2.46-.31-3.4-.94-.95-.62-1.67-1.49-2.16-2.59s-.74-2.35-.74-3.76ZM90.1,21.03c0,.66.13,1.24.39,1.74s.63.89,1.11,1.18c.48.29,1.04.43,1.69.43s1.21-.14,1.7-.42.88-.67,1.15-1.18c.28-.51.42-1.09.42-1.76s-.14-1.27-.42-1.77c-.28-.5-.66-.89-1.15-1.17-.49-.28-1.06-.42-1.7-.42s-1.21.14-1.69.43c-.48.29-.85.68-1.11,1.18s-.39,1.08-.39,1.74Z"/>
    <path d="M111.94,14.34h4.13v13.4h-3.89l-.27-1.5c-.41.55-1,1-1.76,1.34-.76.34-1.54.51-2.34.51-1.52,0-2.72-.48-3.6-1.43-.88-.96-1.33-2.25-1.33-3.9v-8.41h4.13v6.91c0,1.09.2,1.89.59,2.4.39.51,1.01.76,1.85.76.89,0,1.53-.25,1.92-.74s.58-1.28.58-2.37v-6.97Z"/>
    <path d="M124.35,28.08c-1.34,0-2.53-.3-3.58-.91-1.04-.61-1.87-1.44-2.46-2.51-.6-1.06-.9-2.28-.9-3.66s.29-2.62.87-3.68c.58-1.06,1.39-1.9,2.43-2.51,1.04-.61,2.22-.91,3.56-.91,1.41,0,2.63.29,3.64.87,1.02.58,1.8,1.4,2.36,2.46.55,1.06.83,2.33.83,3.79v1.04l-11.52.05.05-2.55h7.37c0-.71-.24-1.28-.72-1.7-.48-.42-1.14-.63-1.98-.63-.7,0-1.26.13-1.7.4s-.76.68-.98,1.25c-.21.56-.32,1.28-.32,2.16,0,1.25.25,2.17.76,2.77.51.6,1.3.9,2.37.9.79,0,1.44-.13,1.96-.4.52-.27.85-.64.99-1.12h3.78c-.23,1.48-.96,2.67-2.2,3.55-1.23.88-2.77,1.33-4.61,1.33Z"/>
    <path d="M131.8,23.5h3.91c.04.46.22.83.56,1.1.34.27.82.4,1.45.4s1.12-.11,1.42-.32c.3-.21.46-.49.46-.83,0-.2-.08-.39-.23-.59-.15-.2-.48-.35-.98-.46l-2.47-.54c-1.23-.27-2.15-.7-2.76-1.3s-.91-1.49-.91-2.67c0-.93.25-1.72.74-2.37.49-.65,1.16-1.15,2-1.5.84-.35,1.79-.52,2.87-.52s1.95.19,2.75.56c.79.38,1.42.9,1.86,1.58.45.68.67,1.47.67,2.38h-3.91c0-.46-.13-.83-.4-1.11-.27-.28-.65-.42-1.15-.42-.46,0-.84.11-1.11.33-.28.22-.42.51-.42.87,0,.57.48.96,1.45,1.18l2.49.54c1.11.23,1.95.63,2.53,1.19s.87,1.38.87,2.45c0,.95-.25,1.77-.75,2.47-.5.7-1.2,1.23-2.09,1.59-.89.37-1.92.55-3.08.55-1.77,0-3.17-.42-4.21-1.27-1.04-.85-1.55-1.95-1.55-3.31Z"/>
    <path d="M143.59,14.34h9.22v3.43h-9.22v-3.43ZM150.26,27.73h-4.13V10.18h4.13v17.55Z"/>
  </g>
  <polygon points="148.2 28.62 150.26 27.73 146.13 27.73 148.2 28.62"/>
  <path d="M19.67,16.15h0c0-.31-.16-.58-.4-.67-4.29-1.59-7.67-5.89-8.91-11.35-.07-.3-.28-.51-.52-.51h0c-.24,0-.45.21-.52.51C8.06,9.59,4.68,13.89.4,15.48c-.23.09-.4.35-.4.67h0c0,.31.16.58.4.67,4.29,1.59,7.67,5.89,8.91,11.35.07.3.28.51.52.51h0c.24,0,.45-.21.52-.51,1.25-5.46,4.63-9.76,8.91-11.35.23-.09.4-.35.4-.67Z"/>
  <path d="M28.58,6.84h0c0-.17-.09-.32-.22-.36-2.34-.87-4.18-3.22-4.87-6.2-.04-.16-.15-.28-.29-.28h0c-.13,0-.25.11-.29.28-.68,2.98-2.53,5.33-4.87,6.2-.13.05-.22.19-.22.36h0c0,.17.09.32.22.36,2.34.87,4.18,3.22,4.87,6.2.04.16.15.28.29.28h0c.13,0,.25-.11.29-.28.68-2.98,2.53-5.33,4.87-6.2.13-.05.22-.19.22-.36Z"/>
  <path d="M54.14,9h0c0-.09-.05-.17-.12-.19-1.24-.46-2.23-1.71-2.59-3.3-.02-.09-.08-.15-.15-.15h0c-.07,0-.13.06-.15.15-.36,1.58-1.34,2.83-2.59,3.3-.07.03-.12.1-.12.19h0c0,.09.05.17.12.19,1.24.46,2.23,1.71,2.59,3.3.02.09.08.15.15.15h0c.07,0,.13-.06.15-.15.36-1.58,1.34-2.83,2.59-3.3.07-.03.12-.1.12-.19Z"/>
</svg>