<?xml version="1.0" encoding="UTF-8"?>
<svg id="Layer_1" data-name="Layer 1" xmlns="http://www.w3.org/2000/svg" viewBox="0 0 25 25">
  <defs>
    <style>
      .cls-1 {
        fill: #fff;
      }

      .cls-2 {
        fill: #7171d3;
      }
    </style>
  </defs>
  <circle class="cls-2" cx="12.5" cy="12.5" r="12.5"/>
  <path class="cls-1" d="M20.2,12.5h0c0-.24-.13-.45-.31-.52-3.36-1.25-6-4.62-6.98-8.89-.05-.23-.22-.4-.41-.4h0c-.19,0-.36.16-.41.4-.98,4.28-3.63,7.65-6.98,8.89-.18.07-.31.28-.31.52h0c0,.24.13.45.31.52,3.36,1.25,6,4.62,6.98,8.89.05.23.22.4.41.4h0c.19,0,.36-.16.41-.4.98-4.28,3.63-7.65,6.98-8.89.18-.07.31-.28.31-.52Z"/>
</svg>